<svg width="128" height="128" version="1.1" xmlns="http://www.w3.org/2000/svg"><path fill="rgb(225,221,218)" stroke="rgb(225,221,218)" stroke-width="1" opacity="1" d="M 6.5 23 L 7.5 25 L 6.5 23 Z "></path><path fill="rgb(225,221,218)" stroke="rgb(225,221,218)" stroke-width="1" opacity="1" d="M 8.5 28 L 7.5 30 L 8.5 28 Z "></path><path fill="rgb(225,221,218)" stroke="rgb(225,221,218)" stroke-width="1" opacity="1" d="M 21.5 35 L 119 35.5 L 21.5 36 L 21.5 35 Z "></path><path fill="rgb(225,221,218)" stroke="rgb(225,221,218)" stroke-width="1" opacity="1" d="M 29 43 L 112 43.5 L 30.5 44 L 29.5 45 L 29 43 Z "></path><path fill="rgb(225,221,218)" stroke="rgb(225,221,218)" stroke-width="1" opacity="1" d="M 120.5 43 L 128 43.5 L 120.5 44 L 120.5 43 Z "></path><path fill="rgb(225,221,218)" stroke="rgb(225,221,218)" stroke-width="1" opacity="1" d="M 119.5 74 L 120.5 76 L 119.5 74 Z "></path><path fill="rgb(225,221,218)" stroke="rgb(225,221,218)" stroke-width="1" opacity="1" d="M 33.5 80 Q 38 79 39 81.5 L 37.5 81 Q 32.5 82 33.5 80 Z "></path><path fill="rgb(225,221,218)" stroke="rgb(225,221,218)" stroke-width="1" opacity="1" d="M 111.5 80 L 115 80.5 L 111.5 81 L 111.5 80 Z "></path><path fill="rgb(225,221,218)" stroke="rgb(225,221,218)" stroke-width="1" opacity="1" d="M 39.5 84 L 40 86.5 L 39 86.5 L 39.5 84 Z "></path><path fill="rgb(225,221,218)" stroke="rgb(225,221,218)" stroke-width="1" opacity="1" d="M 40.5 89 L 41 91.5 L 40 91.5 L 40.5 89 Z "></path><path fill="rgb(225,221,218)" stroke="rgb(225,221,218)" stroke-width="1" opacity="1" d="M 35.5 92 L 40 93.5 L 36.5 94 L 35.5 92 Z "></path><path fill="rgb(225,221,218)" stroke="rgb(225,221,218)" stroke-width="1" opacity="1" d="M 30.5 98 L 31.5 100 L 30.5 98 Z "></path><path fill="rgb(225,221,218)" stroke="rgb(225,221,218)" stroke-width="1" opacity="1" d="M 45.5 101 Q 50.8 99.8 52 102.5 L 50.5 102 Q 44.5 103.3 45.5 101 Z "></path><path fill="rgb(225,221,218)" stroke="rgb(225,221,218)" stroke-width="1" opacity="1" d="M 74.5 101 L 83 101.5 L 74 102 L 73.5 106 L 73 102.5 L 74.5 101 Z "></path><path fill="rgb(225,221,218)" stroke="rgb(225,221,218)" stroke-width="1" opacity="1" d="M 90.5 101 L 96 101.5 L 90.5 102 L 90.5 101 Z "></path><path fill="rgb(225,221,218)" stroke="rgb(225,221,218)" stroke-width="1" opacity="1" d="M 118.5 101 L 127 101.5 L 118.5 102 L 118.5 101 Z "></path><path fill="rgb(225,221,218)" stroke="rgb(225,221,218)" stroke-width="1" opacity="1" d="M 46.5 104 L 48.5 107 L 46.5 104 Z "></path><path fill="rgb(225,221,218)" stroke="rgb(225,221,218)" stroke-width="1" opacity="1" d="M 51.5 104 L 52 107.5 L 51 107.5 L 51.5 104 Z "></path><path fill="rgb(225,221,218)" stroke="rgb(225,221,218)" stroke-width="1" opacity="1" d="M 41.5 108 L 44.5 112 L 41.5 108 Z "></path><path fill="rgb(225,221,218)" stroke="rgb(225,221,218)" stroke-width="1" opacity="1" d="M 59.5 114 L 62 114.5 L 59.5 115 L 59.5 114 Z "></path><path fill="rgb(225,221,218)" stroke="rgb(225,221,218)" stroke-width="1" opacity="1" d="M 104.5 114 L 110 114.5 L 104.5 115 L 104.5 114 Z "></path><path fill="rgb(255,255,255)" stroke="rgb(255,255,255)" stroke-width="1" opacity="1" d="M 0 0 L 128 0 L 128 43 L 120 42.5 L 122 38.5 L 121 36 L 118.5 35 L 21 35 L 17 17.5 L 13.5 14 L 6.5 13 L 2 15 L 0.5 18 L 0 0 Z "></path><path fill="rgb(255,255,255)" stroke="rgb(255,255,255)" stroke-width="1" opacity="1" d="M 7.5 20 Q 12.3 18.3 11 22.5 L 29 95.5 L 31.5 100 Q 38.5 98.5 38 101.5 Q 39.6 108.5 44.5 112 L 49.5 114 L 64.5 115 Q 70.6 113.6 73 108.5 L 74 102 L 82.5 102 L 83 103.5 L 89.5 112 L 93.5 114 L 109.5 115 L 117 109.5 L 118 102 L 127 102 L 127 82 L 121 82 L 121 75.5 Q 119.4 72.5 114 74 L 127.5 45 L 128 128 L 0 128 L 0 26.5 L 1 26.5 L 3.5 30 Q 8 31 9 28.5 L 6 21.5 L 7.5 20 Z "></path><path fill="rgb(255,255,255)" stroke="rgb(255,255,255)" stroke-width="1" opacity="1" d="M 24 42 L 113 42.5 L 29 43 L 36 74 Q 32.2 75 31 72.5 L 30 64.5 L 24 42 Z "></path><path fill="rgb(255,255,255)" stroke="rgb(255,255,255)" stroke-width="1" opacity="1" d="M 33.5 81 Q 38 80 39 82.5 L 40 93 Q 36.2 94 35 91.5 L 33.5 81 Z "></path><path fill="rgb(255,255,255)" stroke="rgb(255,255,255)" stroke-width="1" opacity="1" d="M 110.5 81 L 115 81.5 L 110.5 82 L 110.5 81 Z "></path><path fill="rgb(255,255,255)" stroke="rgb(255,255,255)" stroke-width="1" opacity="1" d="M 45.5 102 Q 53.8 99.5 51 107 L 49.5 107 L 45.5 102 Z "></path><path fill="rgb(255,255,255)" stroke="rgb(255,255,255)" stroke-width="1" opacity="1" d="M 90.5 102 Q 98.8 99.5 96 107 L 91 104.5 L 90.5 102 Z "></path><path fill="rgb(199,99,109)" stroke="rgb(199,99,109)" stroke-width="1" opacity="1" d="M 24.5 41 L 113 41.5 L 24.5 42 L 24.5 41 Z "></path><path fill="rgb(199,99,109)" stroke="rgb(199,99,109)" stroke-width="1" opacity="1" d="M 71.5 53 L 75 53.5 L 71.5 54 L 71.5 53 Z "></path><path fill="rgb(199,99,109)" stroke="rgb(199,99,109)" stroke-width="1" opacity="1" d="M 65 54 Q 68 52.8 67 56.5 L 65 55.5 L 65 54 Z "></path><path fill="rgb(199,99,109)" stroke="rgb(199,99,109)" stroke-width="1" opacity="1" d="M 66.5 61 L 67 63 L 63 62.5 L 66.5 61 Z "></path><path fill="rgb(199,99,109)" stroke="rgb(199,99,109)" stroke-width="1" opacity="1" d="M 38.5 80 L 110 80.5 L 38.5 81 L 38.5 80 Z "></path><path fill="rgb(199,99,109)" stroke="rgb(199,99,109)" stroke-width="1" opacity="1" d="M 33.5 99 L 38 99.5 L 33.5 100 L 33.5 99 Z "></path><path fill="rgb(199,99,109)" stroke="rgb(199,99,109)" stroke-width="1" opacity="1" d="M 108.5 108 L 106.5 111 L 108.5 108 Z "></path><path fill="rgb(76,50,52)" stroke="rgb(76,50,52)" stroke-width="1" opacity="1" d="M 3.5 15 L 1.5 18 L 3.5 15 Z "></path><path fill="rgb(76,50,52)" stroke="rgb(76,50,52)" stroke-width="1" opacity="1" d="M 10.5 19 L 11.5 21 L 10.5 19 Z "></path><path fill="rgb(76,50,52)" stroke="rgb(76,50,52)" stroke-width="1" opacity="1" d="M 6.5 24 L 7.5 26 L 6.5 24 Z "></path><path fill="rgb(76,50,52)" stroke="rgb(76,50,52)" stroke-width="1" opacity="1" d="M 68.5 45 L 67.5 47 L 68.5 45 Z "></path><path fill="rgb(76,50,52)" stroke="rgb(76,50,52)" stroke-width="1" opacity="1" d="M 70.5 46 L 71 49 L 76 49.5 L 71.5 50 Q 69 49 70.5 46 Z "></path><path fill="rgb(76,50,52)" stroke="rgb(76,50,52)" stroke-width="1" opacity="1" d="M 63.5 50 L 62.5 52 L 63.5 50 Z "></path><path fill="rgb(76,50,52)" stroke="rgb(76,50,52)" stroke-width="1" opacity="1" d="M 70.5 53 L 71 56.5 L 70 56.5 L 70.5 53 Z "></path><path fill="rgb(76,50,52)" stroke="rgb(76,50,52)" stroke-width="1" opacity="1" d="M 72.5 57 L 76 59.5 L 73.5 58 L 72.5 57 Z "></path><path fill="rgb(76,50,52)" stroke="rgb(76,50,52)" stroke-width="1" opacity="1" d="M 62.5 58 L 63.5 60 L 62.5 58 Z "></path><path fill="rgb(76,50,52)" stroke="rgb(76,50,52)" stroke-width="1" opacity="1" d="M 75.5 64 L 74.5 66 L 75.5 64 Z "></path><path fill="rgb(76,50,52)" stroke="rgb(76,50,52)" stroke-width="1" opacity="1" d="M 61.5 65 L 67 66.5 L 62.5 67 L 61.5 65 Z "></path><path fill="rgb(76,50,52)" stroke="rgb(76,50,52)" stroke-width="1" opacity="1" d="M 71.5 66 L 73 66.5 L 71 67 L 69.5 71 L 68 70.5 L 70 70 L 71.5 66 Z "></path><path fill="rgb(76,50,52)" stroke="rgb(76,50,52)" stroke-width="1" opacity="1" d="M 98.5 73 L 97.5 75 L 37 74.5 L 97.5 74 L 98.5 73 Z "></path><path fill="rgb(76,50,52)" stroke="rgb(76,50,52)" stroke-width="1" opacity="1" d="M 104.5 74 L 113 74.5 L 104.5 75 L 104.5 74 Z "></path><path fill="rgb(76,50,52)" stroke="rgb(76,50,52)" stroke-width="1" opacity="1" d="M 115.5 80 L 116 92.5 L 115 92.5 L 115.5 80 Z "></path><path fill="rgb(76,50,52)" stroke="rgb(76,50,52)" stroke-width="1" opacity="1" d="M 104.5 87 L 105.5 89 L 104.5 87 Z "></path><path fill="rgb(76,50,52)" stroke="rgb(76,50,52)" stroke-width="1" opacity="1" d="M 42.5 90 L 41.5 92 L 42.5 90 Z "></path><path fill="rgb(76,50,52)" stroke="rgb(76,50,52)" stroke-width="1" opacity="1" d="M 50.5 91 L 55 91.5 L 50.5 92 L 50.5 91 Z "></path><path fill="rgb(76,50,52)" stroke="rgb(76,50,52)" stroke-width="1" opacity="1" d="M 95.5 91 L 100 91.5 L 95.5 92 L 95.5 91 Z "></path><path fill="rgb(76,50,52)" stroke="rgb(76,50,52)" stroke-width="1" opacity="1" d="M 108.5 91 L 109.5 93 L 108.5 91 Z "></path><path fill="rgb(76,50,52)" stroke="rgb(76,50,52)" stroke-width="1" opacity="1" d="M 48.5 92 L 45.5 96 L 48.5 92 Z "></path><path fill="rgb(76,50,52)" stroke="rgb(76,50,52)" stroke-width="1" opacity="1" d="M 44.5 98 L 45 101.5 L 44 101.5 L 44.5 98 Z "></path><path fill="rgb(76,50,52)" stroke="rgb(76,50,52)" stroke-width="1" opacity="1" d="M 67.5 99 L 82.5 99 L 84 100.5 L 83.5 102 L 83 100 L 67.5 100 L 67 101.5 L 66 101.5 L 67.5 99 Z "></path><path fill="rgb(76,50,52)" stroke="rgb(76,50,52)" stroke-width="1" opacity="1" d="M 111.5 99 L 119 99.5 L 111.5 100 L 111.5 99 Z "></path><path fill="rgb(76,50,52)" stroke="rgb(76,50,52)" stroke-width="1" opacity="1" d="M 59.5 104 L 57.5 107 L 59.5 104 Z "></path><path fill="rgb(76,50,52)" stroke="rgb(76,50,52)" stroke-width="1" opacity="1" d="M 63.5 108 L 61.5 111 L 63.5 108 Z "></path><path fill="rgb(76,50,52)" stroke="rgb(76,50,52)" stroke-width="1" opacity="1" d="M 51.5 113 L 54 113.5 L 51.5 114 L 51.5 113 Z "></path><path fill="rgb(76,50,52)" stroke="rgb(76,50,52)" stroke-width="1" opacity="1" d="M 96.5 113 L 99 113.5 L 96.5 114 L 96.5 113 Z "></path><path fill="rgb(229,106,119)" stroke="rgb(229,106,119)" stroke-width="1" opacity="1" d="M 30 44 L 112 44.5 L 98 74 L 37.5 74 L 37 72.5 L 30 44 Z M 67 45 L 66 48 Q 67 50 65 49 Q 60 50 61 58 L 66 62 L 61 63 Q 59 69 66 67 L 67 70 Q 66 72 70 71 L 71 67 L 76 66 L 77 64 L 76 58 L 74 57 Q 69 58 71 54 L 77 53 L 76 49 Q 70 51 71 47 L 67 45 Z "></path><path fill="rgb(229,106,119)" stroke="rgb(229,106,119)" stroke-width="1" opacity="1" d="M 119 44 L 126.5 44 L 127 45.5 L 112.5 74 L 105 73.5 L 119 44 Z "></path><path fill="rgb(229,106,119)" stroke="rgb(229,106,119)" stroke-width="1" opacity="1" d="M 39.5 81 L 110 81.5 L 39.5 82 L 39.5 81 Z "></path><path fill="rgb(138,112,160)" stroke="rgb(138,112,160)" stroke-width="1" opacity="1" d="M 14.5 15 L 15.5 17 L 14.5 15 Z "></path><path fill="rgb(138,112,160)" stroke="rgb(138,112,160)" stroke-width="1" opacity="1" d="M 7.5 19 L 6.5 21 L 7.5 19 Z "></path><path fill="rgb(138,112,160)" stroke="rgb(138,112,160)" stroke-width="1" opacity="1" d="M 32.5 74 L 37 74.5 L 32.5 75 L 32.5 74 Z "></path><path fill="rgb(138,112,160)" stroke="rgb(138,112,160)" stroke-width="1" opacity="1" d="M 113.5 74 L 119 74.5 L 113.5 75 L 113.5 74 Z "></path><path fill="rgb(138,112,160)" stroke="rgb(138,112,160)" stroke-width="1" opacity="1" d="M 39 82 L 114.5 82 L 115 82.5 L 115 94 L 110.5 93 L 102.5 86 L 92.5 86 L 85 92.5 L 84.5 94 L 67.5 94 L 65 93.5 L 63 89 L 57.5 86 L 48.5 86 L 41.5 91 L 39 82 Z "></path><path fill="rgb(138,112,160)" stroke="rgb(138,112,160)" stroke-width="1" opacity="1" d="M 121 82 Q 125.6 80.8 127 83.5 L 127 101 L 118.5 101 L 121 97.5 L 121 82 Z "></path><path fill="rgb(138,112,160)" stroke="rgb(138,112,160)" stroke-width="1" opacity="1" d="M 49.5 92 Q 55.5 90.5 57 93.5 L 52 98.5 L 52 101 L 45 101 L 45 96.5 L 49.5 92 Z "></path><path fill="rgb(138,112,160)" stroke="rgb(138,112,160)" stroke-width="1" opacity="1" d="M 94.5 92 Q 100.6 90.9 103 93.5 L 98 96.5 L 95.5 101 Q 90.8 99.8 89.5 102 L 89 98.5 L 92.5 93 L 94.5 92 Z "></path><path fill="rgb(138,112,160)" stroke="rgb(138,112,160)" stroke-width="1" opacity="1" d="M 73.5 100 L 83 100.5 L 73.5 101 L 73.5 100 Z "></path><path fill="rgb(0,0,0)" stroke="rgb(0,0,0)" stroke-width="1" opacity="1" d="M 5.5 14 Q 13.8 12.7 16 17.5 L 20 34.5 L 21.5 36 L 119.5 36 L 121 37.5 L 117 48.5 L 104 74.5 L 120 75 L 121 77.5 L 121 97.5 L 119.5 99 L 111 99 L 111 103.5 L 105.5 111 Q 101.8 114.3 93.5 113 L 86 107.5 L 82.5 99 L 67.5 99 L 66 100.5 Q 66 109.5 59.5 112 Q 56 114.5 48.5 113 L 42 108.5 Q 38.3 105.1 39 99 L 31.5 99 L 31 97.5 L 12 20.5 L 10.5 19 Q 6.8 18.3 6 20.5 L 5 22.5 L 8 26.5 L 8 29 L 5.5 30 L 2 27.5 L 0 21.5 L 5.5 14 Z M 23 41 L 31 73 L 32 75 L 98 75 L 114 43 L 114 41 L 23 41 Z M 33 80 Q 32 87 35 92 L 35 94 L 41 94 L 43 89 L 50 86 Q 57 85 61 88 L 64 93 L 66 94 L 85 94 L 86 92 Q 89 87 95 86 Q 103 85 107 89 L 111 94 Q 115 95 116 93 L 116 81 L 116 80 L 33 80 Z M 51 91 L 49 92 L 44 99 L 46 106 L 50 108 L 58 107 L 61 103 L 61 97 L 59 93 Q 57 90 51 91 Z M 96 91 L 89 97 L 90 105 L 95 108 L 101 108 L 104 106 L 106 102 L 105 96 Q 103 90 96 91 Z "></path><path fill="rgb(0,0,0)" stroke="rgb(0,0,0)" stroke-width="1" opacity="1" d="M 68.5 46 Q 71.1 45.2 70 48.5 Q 71.4 51.3 76 50 L 76 53 L 70 53 L 70 57 L 76 60.5 Q 76.8 65.3 73.5 66 L 70 67.5 Q 71.1 71.7 67 70 Q 69.3 64 62.5 66 Q 59.5 64.5 62.5 63 Q 67.9 64.9 67 61.5 L 62 57.5 L 61 54.5 L 64.5 50 Q 68.3 51.3 67 47.5 L 68.5 46 Z M 67 53 L 65 55 Q 64 58 67 57 L 67 53 Z M 70 61 Q 69 64 73 63 Q 74 60 70 61 Z "></path><path fill="rgb(231,195,116)" stroke="rgb(231,195,116)" stroke-width="1" opacity="1" d="M 56.5 94 Q 59.8 92.9 59 95.5 L 61 100.5 L 56.5 107 L 52.5 108 L 51 103.5 L 52 100.5 L 56.5 94 Z "></path><path fill="rgb(231,195,116)" stroke="rgb(231,195,116)" stroke-width="1" opacity="1" d="M 101.5 94 L 105 96.5 Q 106.3 103.8 102.5 106 L 96 108 L 96 100.5 L 99 95 L 101.5 94 Z "></path><path fill="rgb(231,195,116)" stroke="rgb(231,195,116)" stroke-width="1" opacity="1" d="M 67 100 Q 72.4 98.5 74 101.5 Q 71.8 102.8 73 107.5 L 68.5 113 L 62.5 115 L 58 113.5 L 65 107.5 L 67 100 Z "></path><path fill="rgb(231,195,116)" stroke="rgb(231,195,116)" stroke-width="1" opacity="1" d="M 112 100 L 118 100 L 118 106.5 L 114.5 112 Q 111.3 115.8 102.5 114 L 102.5 113 L 109 108.5 L 112 100 Z "></path></svg>